<svg xmlns="http://www.w3.org/2000/svg" xmlns:xlink="http://www.w3.org/1999/xlink" version="1.1" style="" xml:space="preserve" width="55.25" height="55.25"><rect id="backgroundrect" width="100%" height="100%" x="0" y="0" fill="none" stroke="none"/>
















<g class="currentLayer" style=""><title>Layer 1</title><path d="M54.618,2.6310000000000002 c-3.51,-3.508 -9.219,-3.508 -12.729,0 L5.827,38.693 C5.8100000000000005,38.71 5.8,38.731 5.785,38.749 c-0.021000000000000026,0.02400000000000002 -0.03900000000000004,0.05000000000000006 -0.05800000000000006,0.07600000000000008 c-0.05300000000000007,0.07400000000000002 -0.09400000000000017,0.15300000000000016 -0.125,0.23900000000000016 c-0.009000000000000018,0.02600000000000004 -0.02200000000000004,0.04900000000000005 -0.029000000000000033,0.07500000000000002 c-0.003000000000000006,0.01000000000000001 -0.009000000000000018,0.02000000000000002 -0.01200000000000001,0.03000000000000004 l-3.535,14.85 c-0.01600000000000002,0.0670000000000001 -0.02000000000000002,0.135 -0.02200000000000004,0.202 C2.004,54.234 2,54.246 2,54.259 c0.0010000000000000013,0.1140000000000001 0.02600000000000004,0.22500000000000023 0.06500000000000009,0.33200000000000046 c0.009000000000000018,0.025000000000000033 0.01900000000000002,0.04700000000000004 0.03000000000000004,0.07100000000000002 c0.04900000000000005,0.10700000000000008 0.11000000000000008,0.21000000000000016 0.19600000000000023,0.2960000000000003 c0.09500000000000017,0.09500000000000017 0.20700000000000016,0.16800000000000026 0.3280000000000004,0.21800000000000017 c0.12100000000000002,0.05000000000000006 0.25,0.07500000000000002 0.37900000000000034,0.07500000000000002 c0.07700000000000008,0 0.15500000000000017,-0.009000000000000018 0.231,-0.02700000000000004 l14.85,-3.535 c0.02700000000000004,-0.006000000000000012 0.05100000000000006,-0.021000000000000026 0.07700000000000008,-0.03000000000000004 c0.03400000000000005,-0.011000000000000018 0.06600000000000009,-0.02400000000000002 0.09900000000000017,-0.03900000000000004 c0.07200000000000002,-0.03300000000000004 0.139,-0.07400000000000002 0.201,-0.12300000000000008 c0.02400000000000002,-0.01900000000000002 0.04900000000000005,-0.03300000000000004 0.07200000000000002,-0.054000000000000076 c0.00800000000000001,-0.00800000000000001 0.01800000000000002,-0.01200000000000001 0.02600000000000004,-0.02000000000000002 l36.063,-36.063 C58.127,11.85 58.127,6.14 54.618,2.6310000000000002 zM53.204,4.045 c2.488,2.489 2.7,6.397 0.6500000000000008,9.137 l-9.787,-9.787 C46.808,1.3450000000000002 50.716,1.557 53.204,4.045 zM48.254,18.895 l-9.9,-9.9 l1.4140000000000001,-1.4140000000000001 l9.9,9.9 L48.254,18.895 zM6.961,50.288 c-0.3910000000000004,-0.3910000000000004 -1.023,-0.3910000000000004 -1.4140000000000001,0 L4.79,51.045 l2.5540000000000003,-10.728 l4.422,-0.4910000000000003 l-0.5690000000000006,5.122 c-0.004000000000000005,0.03800000000000001 0.01000000000000001,0.07300000000000002 0.01000000000000001,0.11000000000000008 c0,0.03800000000000001 -0.01400000000000001,0.07200000000000002 -0.01000000000000001,0.11000000000000008 c0.004000000000000005,0.03300000000000004 0.021000000000000026,0.06000000000000006 0.02800000000000002,0.09200000000000016 c0.01200000000000001,0.05800000000000006 0.029000000000000033,0.11100000000000008 0.05000000000000006,0.16500000000000023 c0.02600000000000004,0.06500000000000009 0.05700000000000005,0.12400000000000008 0.09500000000000017,0.18100000000000016 c0.03100000000000004,0.046000000000000076 0.062000000000000076,0.08700000000000012 0.1,0.127 c0.04800000000000004,0.05100000000000006 0.1,0.09400000000000017 0.15700000000000017,0.134 c0.04500000000000007,0.03100000000000004 0.08800000000000012,0.06000000000000006 0.138,0.0840000000000001 C11.831,45.982 11.9,46 11.972,46.017 c0.03800000000000001,0.009000000000000018 0.06900000000000012,0.03000000000000004 0.10800000000000008,0.035 c0.03600000000000001,0.004000000000000005 0.07200000000000002,0.006000000000000012 0.10900000000000008,0.006000000000000012 c0,0 0.0010000000000000013,0 0.0010000000000000013,0 c0,0 0.0010000000000000013,0 0.0010000000000000013,0 h0.0010000000000000013 c0,0 0.0010000000000000013,0 0.0010000000000000013,0 c0.03600000000000001,0 0.07300000000000002,-0.0020000000000000026 0.10900000000000008,-0.006000000000000012 l5.122,-0.5690000000000006 l-0.4910000000000003,4.422 L6.204,52.459 l0.7570000000000008,-0.7570000000000008 C7.351,51.312 7.351,50.679 6.961,50.288 zM19.511,44.809 L41.889,22.43 c0.3910000000000004,-0.3910000000000004 0.3910000000000004,-1.023 0,-1.4140000000000001 s-1.023,-0.3910000000000004 -1.4140000000000001,0 L18.097,43.395 l-4.773,0.53 l0.53,-4.773 l22.38,-22.378 c0.3910000000000004,-0.3910000000000004 0.3910000000000004,-1.023 0,-1.4140000000000001 s-1.023,-0.3910000000000004 -1.4140000000000001,0 L12.44,37.738 l-3.183,0.3540000000000003 L36.94,10.409 l9.9,9.9 L19.157,47.992 L19.511,44.809 zM51.082,16.067 l-9.9,-9.9 l1.415,-1.415 l9.9,9.9 L51.082,16.067 z" id="svg_1" class="selected" fill="#3395ff" fill-opacity="1"/><g id="svg_2" class="">
</g><g id="svg_3" class="">
</g><g id="svg_4" class="">
</g><g id="svg_5" class="">
</g><g id="svg_6" class="">
</g><g id="svg_7" class="">
</g><g id="svg_8" class="">
</g><g id="svg_9" class="">
</g><g id="svg_10" class="">
</g><g id="svg_11" class="">
</g><g id="svg_12" class="">
</g><g id="svg_13" class="">
</g><g id="svg_14" class="">
</g><g id="svg_15" class="">
</g><g id="svg_16" class="">
</g></g></svg>