<svg xmlns="http://www.w3.org/2000/svg" xmlns:xlink="http://www.w3.org/1999/xlink" version="1.1" style="" xml:space="preserve" width="55" height="55"><rect id="backgroundrect" width="100%" height="100%" x="0" y="0" fill="none" stroke="none" class="" style=""/>
















<g class="currentLayer" style=""><title>Layer 1</title><path d="M55,27.5 C55,12.337 42.663,0 27.5,0 S0,12.337 0,27.5 c0,8.009 3.444,15.228 8.926,20.258 l-0.026000000000000006,0.023000000000000007 l0.8920000000000001,0.7520000000000001 c0.05800000000000001,0.04900000000000001 0.12100000000000001,0.08900000000000002 0.17900000000000002,0.137 c0.47400000000000003,0.39300000000000007 0.9650000000000001,0.7660000000000001 1.465,1.127 c0.16200000000000003,0.11700000000000002 0.32400000000000007,0.234 0.48900000000000005,0.3480000000000001 c0.534,0.36800000000000005 1.082,0.7170000000000001 1.6420000000000001,1.048 c0.12200000000000001,0.07200000000000001 0.24500000000000002,0.14200000000000002 0.36800000000000005,0.21200000000000002 c0.6130000000000001,0.3490000000000001 1.239,0.6780000000000002 1.8800000000000001,0.98 c0.04700000000000001,0.022000000000000006 0.09500000000000003,0.04200000000000001 0.14200000000000002,0.06400000000000002 c2.089,0.971 4.319,1.6840000000000002 6.651,2.105 c0.06100000000000001,0.011000000000000003 0.12200000000000001,0.022000000000000006 0.18400000000000002,0.03300000000000001 c0.7240000000000001,0.125 1.456,0.22500000000000003 2.197,0.29200000000000004 c0.09000000000000002,0.008000000000000002 0.18000000000000002,0.013000000000000003 0.271,0.021000000000000005 C25.998,54.961 26.744,55 27.5,55 c0.7490000000000001,0 1.488,-0.03900000000000001 2.222,-0.09800000000000003 c0.09300000000000003,-0.008000000000000002 0.18600000000000003,-0.013000000000000003 0.279,-0.021000000000000005 c0.7350000000000001,-0.06700000000000002 1.461,-0.16400000000000003 2.178,-0.28700000000000003 c0.06200000000000001,-0.011000000000000003 0.125,-0.022000000000000006 0.18700000000000003,-0.03400000000000001 c2.297,-0.41200000000000003 4.495,-1.109 6.557,-2.055 c0.07600000000000001,-0.035 0.15300000000000002,-0.06800000000000002 0.22900000000000004,-0.10400000000000001 c0.6170000000000001,-0.29000000000000004 1.22,-0.6030000000000001 1.811,-0.936 c0.14700000000000002,-0.08300000000000002 0.29300000000000004,-0.16700000000000004 0.43900000000000006,-0.253 c0.538,-0.31700000000000006 1.067,-0.6480000000000001 1.581,-1 c0.18500000000000003,-0.126 0.36600000000000005,-0.259 0.549,-0.39100000000000007 c0.43900000000000006,-0.31600000000000006 0.8700000000000001,-0.6420000000000001 1.2890000000000001,-0.983 c0.09300000000000003,-0.07500000000000001 0.19300000000000003,-0.14 0.28400000000000003,-0.21700000000000003 l0.915,-0.7640000000000001 l-0.027000000000000007,-0.023000000000000007 C51.523,42.802 55,35.55 55,27.5 zM2,27.5 C2,13.439 13.439,2 27.5,2 S53,13.439 53,27.5 c0,7.577 -3.325,14.389 -8.589,19.063 c-0.29400000000000004,-0.203 -0.5900000000000001,-0.38500000000000006 -0.8930000000000001,-0.537 l-8.467,-4.233 c-0.7600000000000001,-0.38000000000000006 -1.232,-1.1440000000000001 -1.232,-1.9929999999999999 v-2.957 c0.19600000000000004,-0.24200000000000002 0.403,-0.516 0.6170000000000001,-0.8170000000000001 c1.096,-1.548 1.975,-3.27 2.616,-5.123 c1.267,-0.6020000000000001 2.085,-1.864 2.085,-3.289 v-3.545 c0,-0.8670000000000001 -0.31800000000000006,-1.7080000000000002 -0.8870000000000001,-2.369 v-4.667 c0.05200000000000001,-0.519 0.23600000000000002,-3.448 -1.883,-5.864 C34.524,9.065 31.541,8 27.5,8 s-7.024,1.065 -8.867,3.168 c-2.119,2.416 -1.935,5.345 -1.883,5.864 v4.667 c-0.5680000000000001,0.6610000000000001 -0.8870000000000001,1.502 -0.8870000000000001,2.369 v3.545 c0,1.101 0.49400000000000005,2.128 1.34,2.821 c0.81,3.173 2.477,5.575 3.093,6.389 v2.894 c0,0.8160000000000001 -0.44500000000000006,1.566 -1.162,1.9580000000000002 l-7.907,4.313 c-0.252,0.137 -0.502,0.29700000000000004 -0.7520000000000001,0.47600000000000003 C5.276,41.792 2,35.022 2,27.5 zM42.459,48.132 c-0.35000000000000003,0.254 -0.7060000000000001,0.5 -1.067,0.7350000000000001 c-0.16600000000000004,0.10800000000000001 -0.33100000000000007,0.21600000000000003 -0.5,0.32100000000000006 c-0.47200000000000003,0.29200000000000004 -0.9520000000000001,0.5700000000000001 -1.4420000000000002,0.8300000000000001 c-0.10800000000000001,0.05700000000000001 -0.21700000000000003,0.11100000000000002 -0.32600000000000007,0.16700000000000004 c-1.126,0.5770000000000001 -2.291,1.073 -3.488,1.476 c-0.04200000000000001,0.014000000000000002 -0.08400000000000002,0.029000000000000005 -0.127,0.04300000000000001 c-0.6270000000000001,0.20800000000000002 -1.262,0.39300000000000007 -1.904,0.552 c-0.0020000000000000005,0 -0.004000000000000001,0.0010000000000000002 -0.006000000000000002,0.0010000000000000002 c-0.6480000000000001,0.16000000000000003 -1.304,0.29300000000000004 -1.964,0.402 c-0.018000000000000002,0.003000000000000001 -0.036000000000000004,0.007000000000000002 -0.05400000000000001,0.010000000000000002 c-0.6210000000000001,0.101 -1.247,0.17400000000000002 -1.875,0.22900000000000004 c-0.11100000000000002,0.010000000000000002 -0.22200000000000003,0.017000000000000005 -0.3340000000000001,0.025000000000000005 C28.751,52.97 28.127,53 27.5,53 c-0.6340000000000001,0 -1.266,-0.031000000000000007 -1.895,-0.07800000000000001 c-0.10900000000000001,-0.008000000000000002 -0.21800000000000003,-0.015000000000000003 -0.32600000000000007,-0.025000000000000005 c-0.6340000000000001,-0.05600000000000001 -1.2650000000000001,-0.131 -1.8900000000000001,-0.233 c-0.028000000000000004,-0.005000000000000001 -0.05600000000000001,-0.010000000000000002 -0.08400000000000002,-0.015000000000000003 c-1.322,-0.22100000000000003 -2.623,-0.546 -3.89,-0.971 c-0.03900000000000001,-0.013000000000000003 -0.07900000000000001,-0.027000000000000007 -0.11800000000000002,-0.04000000000000001 c-0.6290000000000001,-0.21400000000000002 -1.251,-0.451 -1.862,-0.7130000000000001 c-0.004000000000000001,-0.0020000000000000005 -0.009000000000000003,-0.004000000000000001 -0.013000000000000003,-0.006000000000000002 c-0.5780000000000001,-0.24900000000000003 -1.145,-0.525 -1.705,-0.8160000000000001 c-0.07300000000000001,-0.038000000000000006 -0.14700000000000002,-0.07400000000000001 -0.21900000000000003,-0.11300000000000002 c-0.511,-0.273 -1.011,-0.5680000000000001 -1.504,-0.8760000000000001 c-0.14600000000000002,-0.09200000000000003 -0.29100000000000004,-0.18500000000000003 -0.43500000000000005,-0.279 c-0.454,-0.29700000000000004 -0.902,-0.6060000000000001 -1.338,-0.933 c-0.04500000000000001,-0.03400000000000001 -0.08800000000000002,-0.07 -0.133,-0.10400000000000001 c0.03200000000000001,-0.018000000000000002 0.06400000000000002,-0.036000000000000004 0.09600000000000003,-0.05400000000000001 l7.907,-4.313 c1.36,-0.7420000000000001 2.205,-2.165 2.205,-3.714 l-0.0010000000000000002,-3.6020000000000003 l-0.23,-0.278 c-0.022000000000000006,-0.025000000000000005 -2.184,-2.6550000000000002 -3.001,-6.216 l-0.09100000000000003,-0.3960000000000001 l-0.3410000000000001,-0.22100000000000003 c-0.48100000000000004,-0.31100000000000005 -0.7690000000000001,-0.8310000000000001 -0.7690000000000001,-1.3920000000000001 v-3.545 c0,-0.465 0.19700000000000004,-0.8980000000000001 0.557,-1.223 l0.33000000000000007,-0.29800000000000004 v-5.57 l-0.009000000000000003,-0.131 c-0.003000000000000001,-0.024000000000000004 -0.29800000000000004,-2.4290000000000003 1.3960000000000001,-4.36 C21.583,10.837 24.061,10 27.5,10 c3.426,0 5.896,0.8300000000000001 7.346,2.466 c1.6920000000000002,1.911 1.415,4.361 1.413,4.381 l-0.009000000000000003,5.7010000000000005 l0.33000000000000007,0.29800000000000004 c0.35900000000000004,0.32400000000000007 0.557,0.7580000000000001 0.557,1.223 v3.545 c0,0.7130000000000001 -0.48500000000000004,1.36 -1.181,1.5750000000000002 l-0.49700000000000005,0.15300000000000002 l-0.16000000000000003,0.49500000000000005 c-0.5900000000000001,1.8330000000000002 -1.4300000000000002,3.526 -2.496,5.032 c-0.262,0.37000000000000005 -0.517,0.6980000000000002 -0.7360000000000001,0.9490000000000001 l-0.24800000000000003,0.28300000000000003 V39.8 c0,1.612 0.8960000000000001,3.062 2.338,3.782 l8.467,4.233 c0.05400000000000001,0.027000000000000007 0.10700000000000001,0.05500000000000001 0.16000000000000003,0.08300000000000002 C42.677,47.979 42.567,48.054 42.459,48.132 z" id="svg_1" class="selected" fill="#000000" fill-opacity="1" stroke="none"/><g id="svg_2" class="">
</g><g id="svg_3" class="">
</g><g id="svg_4" class="">
</g><g id="svg_5" class="">
</g><g id="svg_6" class="">
</g><g id="svg_7" class="">
</g><g id="svg_8" class="">
</g><g id="svg_9" class="">
</g><g id="svg_10" class="">
</g><g id="svg_11" class="">
</g><g id="svg_12" class="">
</g><g id="svg_13" class="">
</g><g id="svg_14" class="">
</g><g id="svg_15" class="">
</g><g id="svg_16" class="">
</g></g></svg>